/* XPM */
static char *_ab5cd5b24ca496cb9fe55b058d33b21Pn2Ohq29wQ5IdRHp[] = {
/* columns rows colors chars-per-pixel */
"60 60 134 2 ",
"   c #110F34",
".  c #110F3C",
"X  c #121136",
"o  c #12123B",
"O  c #120F41",
"+  c #131243",
"@  c #151944",
"#  c #15144D",
"$  c #15194E",
"%  c #151453",
"&  c #161D54",
"*  c #17165C",
"=  c #171D5C",
"-  c #181B5D",
";  c #16204E",
":  c #162154",
">  c #182255",
",  c #17225B",
"<  c #18235C",
"1  c #18295E",
"2  c #181763",
"3  c #191A63",
"4  c #191C6A",
"5  c #172160",
"6  c #192363",
"7  c #1A2B64",
"8  c #1A246B",
"9  c #1B2B6C",
"0  c #1A3065",
"q  c #1C316D",
"w  c #1B2572",
"e  c #1D2C74",
"r  c #1E2C7B",
"t  c #1E3374",
"y  c #1F3B74",
"u  c #1E337B",
"i  c #1F3B7D",
"p  c #203B73",
"a  c #20337D",
"s  c #203C7C",
"d  c #20407B",
"f  c #1F3382",
"g  c #1F3D81",
"h  c #203584",
"j  c #213C83",
"k  c #21368A",
"l  c #223D8B",
"z  c #233D91",
"x  c #224384",
"c  c #234884",
"v  c #23448C",
"b  c #24488C",
"n  c #244593",
"m  c #254B95",
"M  c #26469C",
"N  c #264B9B",
"B  c #284B9F",
"V  c #265293",
"C  c #27519B",
"Z  c #28559D",
"A  c #295B9F",
"S  c #2847A1",
"D  c #274AA1",
"F  c #284DA5",
"G  c #294DA8",
"H  c #2753A3",
"J  c #2853A5",
"K  c #2A5BA3",
"L  c #2954AA",
"P  c #2A5AAC",
"I  c #2B56B2",
"U  c #2C5BB4",
"Y  c #2E5EBC",
"T  c #2A61A6",
"R  c #2C63AC",
"E  c #2C62B5",
"W  c #2E69B2",
"Q  c #2E64BC",
"!  c #2E6ABD",
"~  c #316CBC",
"^  c #3171BE",
"/  c #2F66C1",
"(  c #2F6AC2",
")  c #3066C2",
"_  c #316AC4",
"`  c #316ECA",
"'  c #316FCA",
"]  c #2F70C7",
"[  c #3372C4",
"{  c #3070C6",
"}  c #3279C5",
"|  c #3070C8",
" . c #3271CA",
".. c #3272CD",
"X. c #3275CF",
"o. c #347AC9",
"O. c #337CC9",
"+. c #357CCC",
"@. c #3376D0",
"#. c #3475D2",
"$. c #337AD3",
"%. c #347BD3",
"&. c #357BD5",
"*. c #347FD6",
"=. c #367DD9",
"-. c #387FDC",
";. c #3580CF",
":. c #3584D3",
">. c #3784D5",
",. c #3786D7",
"<. c #3884D7",
"1. c #3682DB",
"2. c #3783DC",
"3. c #3784DD",
"4. c #3887D9",
"5. c #3985DC",
"6. c #398BDC",
"7. c #398ADD",
"8. c #3988DF",
"9. c #3A8CDE",
"0. c #3A86E1",
"q. c #378AE0",
"w. c #398BE1",
"e. c #3A89E2",
"r. c #3A8DE3",
"t. c #3B8DE3",
"y. c #3B8DE4",
"u. c #3B8EE4",
"i. c #3D8FE8",
"p. c #3A90E4",
"a. c #3B90E4",
"s. c #3C92E6",
"d. c #3C92E7",
"f. c #3E92E8",
/* pixels */
"s m m m m m m m m m i ; i m N N N N N N N N x : t m N N N N N N N N v < 9 m N N N N N N N N v 1 1 v m m m m m m m m b 0 ",
"x E { { { ] { | { E j ; i E | | | | | | | Q v : t U ' | | | | | | ( m < 9 L ' | | | | | | ( N 1 1 C ( { { { { { { ( H 7 ",
"x ! w.p.p.p.p.p.w.! g : i Q 8.s.p.p.p.p.r.' v , t E 5.s.s.p.p.s.p...m 1 9 P 1.s.p.p.p.p.p.$.H 1 1 H $.p.p.p.p.p.p.*.K 0 ",
"x ( p.T y y y W u.! g : i Q r.! s s s K p.| n , u E w.o.j s s C p.@.m 1 9 P 2.,.x s s b 8.*.H 1 1 H *.8.x p y d :.1.H 0 ",
"x ( p.c   X   V u.! j : s Q u.K o o o x p.| n , u E w.~ + + + q r...m 1 9 P 3.o.$ + o , 4.*.H 7 7 H *.,.: X X @ o.1.K 0 ",
"x ( p.c X X X V u.! j & s Q u.K + + + x p.' n < u E w.~ # # + t r.@.N 6 e P 3.o.& + + 1 4.*.H 7 7 H *.,.: X X @ O.1.K 0 ",
"x ( p.x   X   V u.( j & j Q u.K + + + x s.' n < u E w.~ # + + t r.@.N 6 e U 5.o.& + + 1 4.*.H 6 7 H *.,.: X X @ o.1.H 7 ",
"x ( p.^ A K K } u.( j : j Q u.+.K K K ^ s.' n < u E w.,.P P K ! s.@.N 6 e U 2.9.P K K R p.*.H 7 7 J *.p.T K A K 8.1.H 0 ",
"x ( 3.r.u.u.u.r.5.( j : j Q 5.u.u.i.u.i.w.' n 6 u E 2.u.u.i.i.i.w.@.N 6 e U =.r.u.i.i.u.w.$.J 7 7 J $.w.u.u.u.u.w.*.K 0 ",
"x U Q Q Q Q Q Q Q U j : j U / / / / / / / Q n 5 u U / / / / / ) / Q N 6 e L / / / / / / / Q H 7 7 H Q Q Q Q Q Q Q ! H 0 ",
"t i i i i j j j j j t , t j j j j l l l l l f 6 e l l l l l l l l l j 6 w l l l l l l j j j j 6 6 j j j j j g i i i i 7 ",
": : : : : : : , , , , & < < < < 6 6 6 6 6 6 6 = 6 6 6 6 6 6 6 6 6 6 6 < 6 6 6 6 6 6 6 6 < < < , & , , : : : : : : : : ; ",
"y j j j j j j j j j u , u l l l l l l l l l j 6 u l l l l l l l l l l 6 e l l l l l l l l l j 6 6 j j j j j j j j j i 7 ",
"x E Q Q Q Q ( ( / E l , j U ) ) ) ) ) _ _ Q M 6 h U _ _ _ _ _ _ _ / S 8 u I ) _ ) ) ) ) ) / J 7 7 J Q ( / / / Q Q Q H 0 ",
"v ( 8.u.u.i.u.u.5.( l < j / 5.i.i.i.s.i.w...M 6 h Q 2.i.i.s.s.i.w.#.D 8 u U -.i.i.i.i.i.w.%.J 7 7 J %.r.u.u.u.u.r.*.P 0 ",
"v ( p.^ Z Z Z } u.( l < j / u.+.K K K _ s...M 8 h Q w.4.P P L ! s.#.D 8 r U 2.8.P K K R p.%.J 7 7 L *.r.P Z Z K 8.1.L q ",
"v ( p.b . + + C i.( l < j / i.P # % # v s...M 8 h Q u.~ * % % a i.#.F 8 r U 0.+.- % % 8 4.*.L 7 7 J *.4.< + + $ o.1.L q ",
"v ( p.b o + + Z i.( l < l / i.P % % % v s...M 8 h Q u.~ * * % a i.#.F 8 u U 5.+.* % % 8 8.*.L 8 7 L *.4.< + + $ +.1.L q ",
"v ) p.b . + O C s.( l < l ) i.P # % # v s...M 8 h Q w.~ * % % u i.#.F 8 u U 5.+.- % % 8 8.=.L 9 9 L *.4.< + + $ o.1.L q ",
"v ) p.R j x j ! i.( l < l ) i.{ v v l E s...M 8 h Y w.%.n n n L s.#.F w u U 2.4.n v v N r.*.L 9 9 L *.9.m x x b ,.1.P q ",
"v ) w.p.p.p.s.s.w.( l 5 l ) w.s.s.s.s.s.i...M 8 k Q 0.s.s.s.s.s.i.#.F w u U 2.s.s.s.s.s.s.%.L 9 9 L %.s.s.p.p.p.p.=.P q ",
"v Q | | | | ..| | Q l 6 l Q .............._ M 8 k Y ..#.#.#.#.#.#.' F w f U ' #...........' L 9 9 L ' ' | | | | | _ L q ",
"j n n n n n n n n n j 6 h M M M M M M M M M z 8 h M S S S S S S S S M w r M M M M M M M M M n 9 9 n n n n n n n n n x 9 ",
", , < < < < 6 6 6 6 6 = 6 8 8 8 8 8 8 8 8 w w 8 w w w w w w w w w w w 8 8 w w 8 8 8 8 8 8 8 8 6 6 6 6 6 6 6 < < 1 , , : ",
"q t t u u u u u u u r 6 e f f f h h h h h k f 8 r k k k k k k k k k k w r k k h h h h h f f u 8 8 u u u u u u u u t t 7 ",
"v P U U U U U U U U l 6 l U Y Y Y Y Y Y Y Y M w k I Y Y Y Y Y Y Y Y F w f I Y Y Y Y Y Y Y Y F 9 e F U U U U U U U U H q ",
"v ) 1.5.w.w.w.5.2.( l 6 l ) 2.0.w.w.0.0.5.' M w k ) -.0.u.u.u.u.0.#.G w f U =.0.w.w.w.w.0.%.L 9 9 L $.5.0.0.w.w.5.%.P q ",
"n _ p.:.^ { { ,.u.( l 6 l ) i.4.{ { { ,.s.#.M w k ) u.r.| | | %.f.#.G w h U 2.s...{ { ..s.=.L w 9 L *.s.} { { { p.1.P q ",
"n _ p.m # # # Z i.( l 6 l ) i.P * * * n s.#.S w k / u._ 4 2 2 k i.#.G w h U 0.%.4 * * e 8.=.L 9 9 L =.4.6 # # = +.1.P t ",
"n _ p.b + # + Z i._ l 6 l ) i.P % * % n s...M w k / u._ 2 2 * h i.&.G w h U 0.%.2 % % 8 8.=.L 9 9 L =.4.6 + + & +.1.P q ",
"n _ p.b + + + Z i._ l 6 l ) i.P % % % n s.#.M w k / u._ 2 * * h i.&.G w f U 0.%.2 % % 8 8.=.L w e L =.4.6 + + & +.2.L q ",
"v _ p.Z 7 7 7 P i._ l 6 l ) i.! e e e J s.#.M w k ) u...r r r M s.#.G w h U 0.<.u e e j 8.=.L w e L =.8.u 7 7 t :.1.L q ",
"v _ u.p.8.8.8.s.u.( l 6 l ) w.s.w.w.w.i.i.#.M w k ) 0.s.r.i.i.i.s.#.G w h U 2.s.r.w.r.r.s.=.L w e L *.s.r.w.8.9.s.1.P 9 ",
"v / $.%.%.%.%.%.%./ l 6 l / %.%.=.=.=.=.=.' M w k Y #.=.=.=.=.=.=.#.G w f U #.=.=.=.=.%.%.#.L 9 e L ..%.%.%.%.%.%.@.P 9 ",
"x N H H H J J J J F l 6 l F L L L L L L L L M w k G L L L L L I L L M w f F L L L L L L L L N 9 9 m J J F J J H H H m q ",
"1 6 6 6 6 7 7 8 8 7 8 = 8 9 w w e e e e e e e 4 w r r r r r r r r r r 8 w r e e e e e w e 9 9 6 6 7 7 8 7 7 7 6 7 6 6 , ",
"7 7 7 7 7 9 9 9 9 9 9 = 9 e e e e e r r r r r 8 e r r r r r r r r r r 8 w r r r r e e e e e e 6 6 e 9 9 9 9 7 7 7 7 7 1 ",
"x J L L L L L L L L l 6 l L L L I I I I I I M 8 k L I I I I I I I I S w f G I I I I I L L L N 9 9 N L L L L L L L L N q ",
"v ( %.*.=.=.=.=.%.( l 6 l / %.=.=.=.-.-.=.' M 8 k Q =.-.-.-.-.-.-.#.F w u U #.=.-.=.-.=.=.#.L 9 9 L ..=.=.=.=.=.=.@.P q ",
"v _ u.9.,.<.<.r.u.( l 5 l ) r.s.4.4.4.r.s...M 8 k / 0.s.5.4.5.w.s.#.F w r U 2.f.4.4.4.8.f.%.L 9 9 L *.f.8.<.<.4.s.1.L q ",
"v _ p.C , , , K i.( l < l ) i.E 6 8 6 m s...M 8 h Q u.{ w 8 8 l i.#.F w r U 2.%.e 8 6 u 8.=.L 9 9 L =.8.e , , 7 +.1.P q ",
"v ( s.b o + + C u.( l < l / i.P # % % v s...M 8 h Q u._ * % % a i.#.F 8 u U 5.+.* % % 8 8.=.L 7 9 L *.4.< + + $ +.1.P q ",
"v ( p.b o + + Z i.( l < l / i.P # % % v s...M 8 h Q u.~ * % % a i.#.F 8 u U 5.+.* % # 8 8.*.L 7 9 L *.4.< + + $ +.1.L q ",
"v ( p.m $ $ $ H i.( l < j / u.P - = - n s...M 8 h Q w._ 3 3 * j i.#.F 8 u U 5.%.6 = - e 8.*.L 7 9 L *.8.7 $ $ , +.1.P q ",
"v ( u.4.o.+.+.8.u.( l < j / r.9.+.+.+.4.s...M 6 h Q w.r.%.%.+.<.s.#.D 8 u U 2.s.%.+.+.:.s.*.J 7 7 J *.s.;.o.o.+.p.1.P q ",
"v ( =.1.2.3.3.2.=.( l < j / =.2.5.5.5.5.2.' M 6 h E =.2.5.5.0.5.2.#.D 8 u U %.2.5.5.0.5.2.@.J 7 7 J @.2.3.3.2.2.1.$.P 0 ",
"x L P P P P P P P L j , j L U U U U U U U U n 6 h L U U U U U U U U N 8 u L U U U U U U U U N 7 7 N P P P P P P P P N 0 ",
"7 9 9 9 9 9 9 9 e t 7 & 9 t e e e e e e u u e 6 9 u u u u u u u u u e 6 8 u u e e e e e e e e < 1 e e q 9 9 9 9 9 9 7 1 ",
"> > > > > , , , , < < & < 6 6 6 6 6 6 6 6 6 6 = 6 8 6 8 8 8 6 6 6 6 6 = 6 6 6 6 6 6 6 6 6 6 6 & & 1 < , , , , > > > > ; ",
"s m m m m m m m m m i , u m m m N N N N N N l 6 u N B B B D B B B N n 6 e M N N N N m m m m n 7 7 n m m m m m m m m v 0 ",
"x ! ..............Q j : j E ....@.@...@.X.( n 6 u Y ..#.#.#.#.#.X.' N 6 e U ..@.........X.' J 7 7 J ' ............| H 0 ",
"x ( r.p.r.r.r.p.w.( j : j Q w.s.u.u.p.s.i.' n < u E 5.s.s.s.i.s.s.@.N 6 e U 1.s.s.s.u.p.s.%.J 7 7 J %.s.p.r.r.r.p.,.K 7 ",
"x ( p.K q q q R u.( j : j Q u.! t t t K s.' n < u E w.o.a u u m s.@.N 6 e U 5.,.s t t x 9.*.H 7 7 J *.8.x q q y :.1.H 7 ",
"x ( p.c   X X V u.( j & j Q u.K + + + x s.' n < u E w.~ + + + t r.@.N 6 e U 5.o.$ + + < 4.*.H 7 7 H *.,.: X X @ O.1.H 7 ",
"x ( p.c X o X V u.( j : s Q u.K + + + x p.' n < u E w.~ # + + t r.#.m 6 e P 5.o.& + + < 4.%.H 7 7 H *.,.: X X @ O.1.K 0 ",
"x ( p.x X o X V u.! g : i Q u.K + + + x p.' n , u E w.! # + + t r.@.m < 9 P 5.o.& + + , 4.%.H 7 7 H *.,.> X X @ O.1.K 0 ",
"x ! p.} T T T +.r.! j : i Q r.;.R R T } p.' n , u E w.4.W W R ^ p.@.m 1 9 P 2.9.W R R W p.%.H 1 1 H *.p.W T T R 9.1.H 7 ",
"x ! 3.q.w.w.r.r.3.! j ; i Q 1.w.w.w.r.w.5.' v , t E 1.w.u.u.u.u.w...m 1 9 P *.w.w.w.r.w.8.$.H 1 1 H $.8.w.w.w.w.8.%.H 7 ",
"x P E E E E E E E P s ; i P E E E E E E E U v , t L E E E E E E E E m < 9 J E E E E E E E E N 1 1 N E E E E E E E E C 7 ",
"q s s s s s s s s s t ; q j j j j j j j j j i : q j j j j j j j j j s < 9 j j j j j j j j j s 1 1 s s s s s s s s s y 1 "
};
