/* XPM */
static char *_c2f25321bd542fec79225f6815f6a8eA7WZaD53ESqWaCyz[] = {
/* columns rows colors chars-per-pixel */
"60 60 144 2 ",
"   c #1F3256",
".  c #1D355C",
"X  c #1B385E",
"o  c #292643",
"O  c #272846",
"+  c #292845",
"@  c #242C4C",
"#  c #2D2E4B",
"$  c #302F4A",
"%  c #25304F",
"&  c #2A304E",
"*  c #32304B",
"=  c #212F51",
"-  c #203254",
";  c #2B3452",
":  c #223559",
">  c #24395C",
",  c #293A5B",
"<  c #1A3B64",
"1  c #1B3E6B",
"2  c #1B3F70",
"3  c #233D63",
"4  c #1C416E",
"5  c #1D4273",
"6  c #1E467A",
"7  c #1F487E",
"8  c #234266",
"9  c #22436C",
"0  c #224673",
"q  c #244875",
"w  c #214679",
"e  c #234A7D",
"r  c #1F4983",
"t  c #1E4C8A",
"y  c #1F4F93",
"u  c #1F5094",
"i  c #214C85",
"p  c #214E8B",
"a  c #23508D",
"s  c #28538E",
"d  c #225193",
"f  c #285794",
"g  c #2A5896",
"h  c #23559B",
"j  c #27599D",
"k  c #2C5B9C",
"l  c #305E9D",
"z  c #33619F",
"x  c #2456A0",
"c  c #265BA5",
"v  c #2B5DA3",
"b  c #275CAA",
"n  c #285EAC",
"m  c #305FA0",
"M  c #295FB2",
"N  c #2E60A7",
"B  c #2B60AD",
"V  c #3261A2",
"C  c #3264AB",
"Z  c #2D63B4",
"A  c #3167B6",
"S  c #3369B7",
"D  c #3067B8",
"F  c #356BBB",
"G  c #386FBE",
"H  c #3D71BD",
"J  c #4075BF",
"K  c #4876B9",
"L  c #4A7ABC",
"P  c #396FC2",
"I  c #3C73C2",
"U  c #4076C4",
"Y  c #4478C3",
"T  c #4A7CC3",
"R  c #4277C8",
"E  c #467BCC",
"W  c #497DCC",
"Q  c #517FC1",
"!  c #5080BF",
"~  c #4E81C6",
"^  c #4B81CE",
"/  c #5281C2",
"(  c #5283CA",
")  c #5C8BCE",
"_  c #4D82D1",
"`  c #5286D4",
"'  c #5489D6",
"]  c #5F8ED0",
"[  c #578BD8",
"{  c #5A8EDA",
"}  c #5E92DC",
"|  c #608ECF",
" . c #6492D1",
".. c #6996D5",
"X. c #6B98D7",
"o. c #6396DE",
"O. c #6798DF",
"+. c #6B9ADC",
"@. c #739FDA",
"#. c #75A0DB",
"$. c #7BA5DE",
"%. c #6496E0",
"&. c #6698E0",
"*. c #6A9BE1",
"=. c #6A9CE3",
"-. c #6D9EE3",
";. c #6FA0E3",
":. c #6FA0E5",
">. c #70A0E3",
",. c #75A3E3",
"<. c #73A3E7",
"1. c #77A6E7",
"2. c #7DA8E1",
"3. c #76A5E8",
"4. c #78A7EA",
"5. c #7CAAEA",
"6. c #82ADE5",
"7. c #86AEE7",
"8. c #88AFE7",
"9. c #83AEE8",
"0. c #80ADEB",
"q. c #84AFEB",
"w. c #86B2EC",
"e. c #87B3EE",
"r. c #8AB3EA",
"t. c #8BB3EB",
"y. c #89B4EB",
"u. c #8DB5EB",
"i. c #88B3ED",
"p. c #8AB4EF",
"a. c #91B7EB",
"s. c #92B9ED",
"d. c #94BAED",
"f. c #98BDEE",
"g. c #84B2F0",
"h. c #8AB5F0",
"j. c #8AB5F1",
"k. c #8FB9F2",
"l. c #91BBF2",
"z. c #95BCF1",
"x. c #94BDF2",
"c. c #98BFF1",
"v. c #9BC2F3",
"b. c #A0C5F5",
/* pixels */
". X X X X X X X X X X X X   o @ X X X X < < X X X X X X X @ + . < 8 < . X X X < X X X X - o - X < < < < < < < < < < < X ",
"X 1 4 4 4 4 4 4 4 4 4 4 1   o @ < 4 4 4 0 0 4 4 4 4 4 4 < @ + X q 0 4 4 4 4 4 4 4 4 4 1 - o - < 4 4 4 4 4 4 5 0 5 4 1 < ",
"X 5 p a p p a a p p a i 4   o @ < 6 a f d p p p p p p 7 < @ + X 5 p p p p p p p p a i 1 - o - 1 i d d d d d g f d p 5 < ",
"X 5 h Z Z Z S A Z Z B d 4   o @ < e N A Z Z Z Z Z Z c i < @ + . 5 h Z Z Z Z Z Z Z B d 1 - o - 1 p B A A D F F A Z h 5 < ",
"X 5 h R :.1.3.<.<.=.G d 4   o @ < i B [ <.<.<.<.<.{ B r < @ + . 5 h E :.<.<.<.<.-.H d 1 - o - 1 p D =.4.5.5.4.3.W x 5 < ",
"X 5 h E z.a.r.r.s.h.I d 4   o @ < 7 n O.z.r.r.r.c.-.B r < @ + . 5 h ^ l.r.r.r.f.p.G d 1 - o - 1 p F q.a.8.7.r.z.` x 5 < ",
"X 5 h ^ r.H Z Z ( p.I d 4   o @ < 7 n *.+.Z A A #.;.Z i < @ + . 5 h ^ q.G A S ) p.G d 1 - o - 1 p F q.( Z Z G r.` x 5 < ",
"X 5 h W q.C t t L h.I d 4   o @ < 7 n *.X.d p d @.,.A i < @ + . 5 h ^ q.v a d / w.G d 1 - o - 1 p F q.L t r C r.` x 5 < ",
"X 5 h E q.V 1 5 L h.I d 5 : o @ < 7 n *.X.r < i #.,.B r < @ + . 5 h ^ q.k 1 5 Q w.G d 1 - o - 1 p F q.L 5 1 V y.` h 5 < ",
"X 5 h E q.V < 1 L h.I f 0 : o @ < 7 n *.X.r < a $.>.B r < @ + . 5 h ^ q.k < 5 Q w.G d 1 - o : 9 p F q.L 1 < m y.` x w 8 ",
"X 5 h E q.V < 1 L h.U g 4   o @ < 7 n *.X.r < i #.>.B r < @ + . 5 h ^ q.k < 5 Q w.G d 1 - + > 4 p F q.L 1 < V p.` x e < ",
"X 5 h E q.V < 1 L h.U d 4   o @ < 7 n *.X.r < i #.>.B r < @ + . 5 h ^ q.k < 5 Q w.G d 1 > * - 1 p F q.L 1 < V y.` x 5 < ",
"X 5 h E q.V < 1 L h.I d 4   o @ < 7 n *.X.r < i #.>.B r < @ + X e j ^ q.k < 5 Q w.G d 9 , + - 1 p D 9.L 5 < V y.` x 5 < ",
"X 5 h E q.V 1 5 L h.I d 4   o @ < 7 n *.X.r 1 p #.>.B r < @ + 3 5 h ^ q.k 1 5 Q w.G d 4 - o - 1 p D 9.L 5 1 V y.` x 5 < ",
"X 5 h E q.C d y L h.I d 4   o @ < e B -.X.h d h @.>.B r < & * > 5 h ^ 9.N d y / w.G d 1 - o - 1 p D q.T d d C r.` x 5 < ",
"X 5 h E w.T H G ) p.I d 4   o @ < i N *.#.H H H $.;.B r < ; + . 5 h ^ w.Y H G | p.G d 1 - o - 1 p D q.] Y Y T u.` x 5 < ",
"X 5 h E l.z.z.z.c.h.I d 4   o @ 9 i n O.c.z.z.d.v.-.B r < @ + . 5 h ^ l.z.d.z.c.w.G d 1 - o - 1 p F q.v.z.z.z.l.` x 5 < ",
"X 5 h U o.o.%.%.o.} G d 4   + ; < 7 n ` %.%.%.%.%.' n r < @ + . 5 h U o.o.o.*.&.} F a 1 - o - 1 p D } o.} } } } R x 5 < ",
"X 5 k B n n n n n n n d 4   + @ < 7 c n n n n n n n c r < @ + . 5 h n n n A Z n n n a 1 - o - 1 p N B b b b b b b h 5 < ",
"X q a p p p p p p p p i 4   o @ < 6 p p p p p p a p p 6 < @ + . 5 i p p s a p p p p r 1 - o - 1 r i i i i i i i i r 5 < ",
"< 4 1 1 1 1 1 1 1 1 1 1 1   o @ < 1 1 1 1 1 4 0 0 4 1 1 < @ + . 1 1 4 0 0 1 1 1 1 1 1 1   o - < 1 1 1 1 1 1 1 1 1 1 4 < ",
"                    :     @ o @             > >           @ + -     . :                 @ o @                     > > : ",
"o + + o o o o o o # $ + o o o o o o o o + $ $ + o o o o o o o o o o o o o o o o o o o o + o o o o o o o o o o o # $ o o ",
"-               > > -                   : > -           @ o O @ @ @ @ @ @ @ @ @ @ @ @ ; ; @ @ @ @ @ @ @ @ @ @ ; ; @ @ O ",
"X < 1 4 4 4 4 0 q 4 4 4 4 4 4 4 4 4 4 4 4 4 4 4 4 4 1 <   o @ < < 1 < < < < < 1 < < 4 9 1 < < < < < < < < < 1 1 1 < < @ ",
"X 1 6 a d d h k h d d d d d h h d d h d d d d h d p 5 <   + ; < 4 7 p t p p p p t a s p p p p p p p p p p t t t 7 4 < - ",
"X 1 6 h M I ^ ^ ^ ^ ^ ^ ^ ^ ^ ^ ^ ^ ^ ^ ^ W W P n d 5 < : $ % < 4 p x Z F G F F G H G F G F F G G G G F G F Z x i 4 < @ ",
"X 1 6 h Z { h.z.w.w.w.w.w.w.w.r.r.w.w.w.w.z.g._ n d 5 4 > + @ < 4 p x P -.w.w.w.w.w.w.w.w.w.w.w.w.w.w.w.w.-.P c i 4 < @ ",
"X 1 7 h Z } z.6.F C m l l l z V z l V C I d.h._ n d w 9 . o @ < 4 p x P 3.b.X.T L L L L L L L L L L / X.b.3.P x i 4 < @ ",
"X 1 7 d Z } z.2.Z d 5 < < < 9 < < < 6 h D a.h._ n d w 1   o @ < 4 p x P 3.v.( c t 5 1 1 1 1 1 1 5 a b ( b.3.P x i 4 < @ ",
"X 9 e d Z } z.2.Z h r 6 w i e 6 6 6 r h D a.h._ n d 5 <   o @ < 4 p x P 3.v.( b t 2 1 1 1 1 1 1 q a c ( b.3.P x i 4 < @ ",
"8 4 6 d M } l.a... . . ... . . . . . . .X.c.h._ n d 5 <   o @ < 4 p c I 4.b.X.T K K K K K K K L L K T X.b.3.P x i 4 < @ ",
"< 1 6 h Z _ o.O.*.*.*.*.*.*.*.*.*.*.*.*.O.O.o.R n d 5 <   o @ < 4 p v P =.5.5.5.5.5.5.5.5.5.5.5.5.5.5.5.5.=.P c i 4 < @ ",
"X 1 6 d c c c c c c c c c c c c c c c c c N N c c d 5 <   o @ < 5 s v Z A A A A A A A A A A A A A A A A A A Z h p 4 < @ ",
"X 1 5 6 6 6 6 6 6 6 6 6 6 6 6 6 6 6 6 6 e e 6 6 6 6 5 <   o @ < 0 e i i i i i i i i i i i i i i i i i i i r i a i 4 < @ ",
". X X X X X . 3 < X X X X X X X X X X 3 3 . X X X X X X   o @ X < < < < < < < < < < < < < < < < < < < < < < 9 9 < < < @ ",
"O O O O O O # # + O O O O O O O O + & # + O O O O O O O + o O @ @ @ @ @ @ @ @ @ @ & ; @ @ @ @ @ @ @ @ @ @ ; ; @ @ @ @ O ",
"+ + + + + # $ + + + + + + + o o + + + + + + + + + + + + + + o + + + + + + + + + # # + + + o + + + + + O # # + + + + + O ",
". . . . 3 3 . . . . . . . - o @ . . . . . . . . . . . 3 X @ +   . . . . . . . 3 3 . . . = o = X . . . . X X . . . . . X ",
"X 1 5 5 0 5 5 5 5 5 5 4 1   o @ < 4 5 5 5 5 5 5 5 5 0 q < @ + . 1 5 5 5 5 5 w q 5 5 4 1 - o - 1 5 5 5 5 5 5 5 5 5 5 4 < ",
"X 5 p d d d d d d d d p 4   o @ < 7 d d d d d d d f g e < @ + . 5 p d d d d d d d d i 1 - o - 1 i d d d d d d d d a 5 < ",
"X 5 h Z A Z Z Z Z Z Z d 4 > + @ < 7 c Z A Z Z Z F F n r < @ + . 5 h Z D Z Z Z A Z Z d 1 - o - 4 a B D D D F D D Z h 5 < ",
"X 5 h R <.3.3.3.3.-.I f q : o @ < 7 n { 3.3.3.3.5.} B r < @ + . 5 h E <.3.3.3.3.-.G d 1 - o - 0 a D -.5.5.5.5.5.^ x w 8 ",
"X 5 h E l.r.w.w.a.p.I g 5   o @ < 7 n *.d.w.w.w.f.-.B r < @ + . 5 h ^ l.r.w.w.s.w.G d 1   + , 4 p F q.r.9.9.7.z.` h w < ",
"X 5 h E q.G Z Z ~ p.U d 4   o @ < 7 n *.+.Z Z Z #.;.B r < @ + . 5 j ^ 9.F Z Z ( w.G d 1 : * : 1 p F q.T n n F r.` x 5 < ",
"X 5 h E q.C r t L h.I d 4   o @ < 7 n *.X.d i d @.>.B r < @ + . e j ^ 9.v r t Q w.G d 1 > + - 1 p F q.L r r C r.` x 5 < ",
"X 5 h E q.V 1 5 L h.I d 4   o @ < 7 n -.X.r < i #.>.B r < @ + 3 w h ^ q.k < 5 Q w.G a 1 - o - 1 p F q.L 5 < V y.` x 5 < ",
"X 5 h E q.V < 1 L h.I d 4   o @ < e B -.X.r < i #.>.B r < @ * > 5 h ^ q.k < 5 Q w.G a 1 - o - 1 p F q.L 1 4 V r.` x 5 < ",
"X 5 h E q.V < 1 L h.I d 4   o @ < i B *.X.r < i #.>.B r < @ + . 5 h ^ q.k < 5 Q w.G d 1 - o - 1 p F q.L w 4 V r.` x 5 < ",
"X 5 h W w.V < 1 L h.I d 4   o @ 9 i n *.X.i < i #.>.B r < @ + . 5 h ^ q.k < 5 / p.G d 1 - o - 1 p F q.! w < m y.` x 5 < ",
"X 5 h ^ w.V < 1 L h.I d 4   o @ < 7 n *.X.r < i #.>.B r < @ + . 5 h ^ q.k < w / p.G d 1 - o - 1 p F q.L 2 < m y.` x 5 < ",
"X 5 j ^ q.V 4 5 L h.I d 4   o @ < 7 n *.X.r 1 p @.>.B r < @ + . 5 h ^ q.k 0 e ! w.G d 1 - o - 1 p F q.L 5 4 V y.` x 5 < ",
"X w j W q.C d u L h.I d 4   o @ < 7 n *.X.h d h #.,.B r < @ + . 5 h ^ 9.C g d Q w.G d 1 - o - 1 p F q.L d d C r.` x 5 < ",
"X 5 h E w.T J I ) p.I d 4   o @ < 7 n *.#.H J Y 6.>.B r < @ + . 5 h ^ r.~ U H  .i.G d 1 - o - 1 p F q. .Y Y ( u.` h w 8 ",
"X 5 h E k.z.z.z.c.p.I f 1   o @ < 7 n O.z.z.z.c.v.-.B r < @ + . 5 h ^ l.z.z.z.v.w.G d 1 - o - 1 p F 5.c.z.z.z.l.` x e < ",
"X 5 h I } } } } } } I d 4   o @ < 7 n _ } o.o.o.} ` n r < @ + . 5 h I } } } } } { F d 1 : $ - 1 p D ' { { { { { E v w < ",
"X 5 d n n n n n B C n d 4   o @ < 7 c n n n n n n n c r < @ + . 5 h n n n n n n n b a 4 > + - 1 p c b b b b b n B h 5 < ",
"X 4 i i i i i a s p i r 1   o @ < 6 i i i i i i i i i 6 < @ + > 5 i i i i i i i i i i q : o - 1 7 i i i i i i i i r 5 < ",
"X 1 1 1 1 1 1 9 4 1 1 1 <   o @ < 1 1 1 1 1 1 1 1 1 1 1 < @ $ > 1 1 1 1 1 1 1 1 1 4 q 1   o - < 1 1 1 1 1 1 1 1 1 1 1 < ",
"  .   . . .   . . . .   . = o @   .   . . . . . . . . . . ; +   . . . . . . . . . : .   = o @                           "
};
