/* XPM */
static char *_c5bfff50dcc4c48bc9326590637b6f4mISeLyW2LYK52Qpm[] = {
/* columns rows colors chars-per-pixel */
"64 64 122 2 ",
"   c #0D0D0D",
".  c #100D0E",
"X  c #0F100F",
"o  c #0C0E12",
"O  c #0B0F18",
"+  c #130E12",
"@  c #1A0E16",
"#  c #170F19",
"$  c #1C0E1B",
"%  c #0E1015",
"&  c #0D131B",
"*  c #0F181F",
"=  c #141415",
"-  c #1A1317",
";  c #151618",
":  c #17151B",
">  c #14171A",
",  c #15171A",
"<  c #14171B",
"1  c #15171B",
"2  c #17101D",
"3  c #11161C",
"4  c #12141F",
"5  c #1A1119",
"6  c #1E101A",
"7  c #1B141B",
"8  c #1A161B",
"9  c #1F131C",
"0  c #1A151C",
"q  c #1B171F",
"w  c #1C151E",
"e  c #13191E",
"r  c #12181F",
"t  c #1A181E",
"y  c #230D1A",
"u  c #2A0C1C",
"i  c #21131A",
"p  c #23101D",
"a  c #23131D",
"s  c #24121C",
"d  c #29121E",
"f  c #2C121F",
"g  c #1F0F21",
"h  c #0F1620",
"j  c #0F1F2E",
"k  c #131720",
"l  c #191320",
"z  c #1D1020",
"x  c #1C1621",
"c  c #1D1723",
"v  c #121820",
"b  c #131921",
"n  c #131A23",
"m  c #121B23",
"M  c #121B24",
"N  c #111B26",
"B  c #121C25",
"V  c #121C27",
"C  c #1B1924",
"Z  c #121E2A",
"A  c #1C1C2A",
"S  c #250E21",
"D  c #2D0C22",
"F  c #350F23",
"G  c #3B0C25",
"H  c #3D0E26",
"J  c #380F2A",
"K  c #231522",
"L  c #211622",
"P  c #241523",
"I  c #251024",
"U  c #271125",
"Y  c #2E1222",
"T  c #2B1423",
"R  c #221825",
"E  c #25172A",
"W  c #2D1228",
"Q  c #2B152A",
"!  c #24192B",
"~  c #2B182D",
"^  c #331224",
"/  c #341125",
"(  c #311029",
")  c #35122B",
"_  c #33142A",
"`  c #3A1028",
"'  c #3B132B",
"]  c #32182D",
"[  c #261D31",
"{  c #291B31",
"}  c #361734",
"|  c #3D1533",
" . c #351931",
".. c #3B1835",
"X. c #0F202F",
"o. c #132029",
"O. c #420C29",
"+. c #40102C",
"@. c #41122D",
"#. c #4D0E30",
"$. c #540C3E",
"%. c #431434",
"&. c #4B1234",
"*. c #4B1137",
"=. c #431138",
"-. c #451538",
";. c #4A153B",
":. c #48183D",
">. c #521135",
",. c #561239",
"<. c #5D113D",
"1. c #4A1842",
"2. c #561543",
"3. c #5A1543",
"4. c #5E1344",
"5. c #670F43",
"6. c #641247",
"7. c #6B164D",
"8. c #6C1550",
"9. c #731555",
"0. c #7D155A",
"q. c #931567",
/* pixels */
"              o % = = = 4 4 3 = = = = = = = = = = = i 0 4 : : = - x M r = : r 4 = = = = = = G 5 4 4 = = = 6 3 & & & & o         ",
"          o % % % % = = = 4 3 4 3 3 3 3 4 = = = = = = = : : : : = 0 v : = 4 4 = = = = = = i H : 4 4 = = = @ l & & & & o o       ",
"      o o % % % % = = 4 = = 4 4 4 v r r v v 4 4 = = = = = : : : = : v = : = = = = = = = = ' ^ = 4 4 = = = = L & & & & O o o     ",
"  o o % % % % % % = = 4 4 = 4 4 r v r r v M M M v r 4 : = = = = = : r = = = = = = = - - T 6.6 = 4 4 = = = = p l & & & & % o o   ",
"o o o & & & & = = = = 4 4 = - : r v v v v M M M M M B v v r : = = : : = = = - i f / ' +.&.4.- = 3 4 = = = = 5 U & & & & % o o o ",
"o o % & & & = = = = = 3 4 4 = - w v v v v M M M B B B B M v v v r : : = : : 8 w 0 0 r r r ( s = 3 4 4 4 = = = _ k & & & % o o o ",
"o o & & & = 2 = = = = = 4 4 = = - L v v v M M M B B B M B v v v r : : : : : : : 4 4 r r r L T = 3 3 4 4 4 = = W =.U z 2 = o o o ",
"o o & & & 2 = = 4 = = : 4 4 4 = = 9 L v v M M M B B B B B v C 8 = : : : : : : : : 4 4 4 3 8 ^ = = : 4 4 4 4 = _ J u y y y y @ + ",
"o O & & 2 5 & 3 3 = = - k v 4 = = = s L v M M M M M M B C P 8 = = : = : : : : : : : 4 4 4 4 T 8 = 3 3 4 4 4 0 ^ = X X           ",
"+ @ 4 4 p = & 3 3 = = 5 k v v 4 = = = d E M M M M M B ! T - = = : : = : r r r : : : : : : 4 w s = = 3 3 4 4 L 9 = = =           ",
"  . y ) 5 % & 4 4 = = 5 x v v 4 = = = = ^ E B M B A ) T = = = = r r = : : r v v r : : : : : : d = = 3 4 4 : d = = = =           ",
"      S 2 % 4 4 = = = 5 x v v v = = = = : ' E B ] ' i = = = = : r r = : : t v v v r : : : : : s - = r r r L - = = = . .     o o ",
"      @ 2 % 4 4 = = = - L v v v 4 = : : : 8 &.3./ - = = = = = : v r = = r w C v v v r : : : : 8 9 = r v v p = = = =     o o o o ",
"      + 5 & 4 4 = = = = L v v v v : : : : : Q %.= = = = = = = r v C - = : : L v v B v r : : : : 9 = r v x 5 = = = = = o % o o o ",
"o     + 5 = 4 4 = = = = T v v v v : : : : : p / = = = = = = : v v L 8 = : r L R v v v M v : = = 5 = v M w = = = = = % % % o o o ",
"o     = 5 = 4 4 = = = = T v v v v v : : : : 0 / = = = = = : r v v R 8 = : r r Q C v v v v r : = = = v v - = = = = = = % % o o + ",
"O o   X - = 4 = = = = = T x r r v v r : : : 0 ^ - = = : : : v B v T 8 = : r r P Q v v v v v r = = = v : = = = = = = = = % o o u ",
"& & o % - 4 4 = = = = = _ E r v v v v : r r : ^ - = : : : r B B B _ 8 = = r r r ' R v v v v v r : = 4 = = = = = = = = = = + y D ",
"& & % % = 4 4 = = = = 5 %.| v r v v v r r r r Q - = : : : v B B B ) 8 = = r r r P ' v v v v r r 4 : = = = 5 9 p T T F G G O.$.$ ",
"& & & % = = 4 = = = - T w T Q v v v v v r r r Q 8 : : : r B B B B ' - = = : v r r ' U v v v r 0 : : : 4 4 : : : k x x x l 2 Q D ",
"2 & & & = = = = = - s : 3 : T U r v v v r v v T 8 : r r v B B B B +.8 = = : v v r L &.v r P ^ s = 4 : : : 3 3 3 & & & & & & & S ",
"# 6 4 & % = = = 5 9 : 4 4 4 : L L v v r r v v R w : r r B Z Z B A &.- = = = v v v r ;.3.>.' i = = : : : : : 3 3 4 k 4 4 & & & & ",
"% = 2 2 4 = = - 2 : : : 4 4 4 : L x r r r v v x w r r r B Z Z Z A &.- = = = r v v r ~ 0.T = = = : r x 8 : : : 4 4 4 k h & & & & ",
"% % = = = = = = = : : 4 4 4 4 4 r L C r r v v C w r r v Z Z Z Z A ,.- = = = : v v r R &.= = = = : v C w : : : 4 4 4 4 4 & & & & ",
"% % = = = = = = = : 4 4 r r r r r r L 0 r r v C x r r B B B Z B [ 7.: - = = : v v v R ' = = = = r v v T : : : 4 4 4 4 = & & & & ",
"o % = = = 4 = = = = 4 4 r v r r v v r w t r v B x r r B B Z Z ! 8.q.T = = = = v v v L / = = = : v v v Y 8 : : 4 4 4 4 = = = % & ",
"o   X = = 4 4 = = = = = 4 r v r v v r r t r v B C r v B B B ~ <.-...>.: : = = r v v L ^ = = = r v v v _ p 4 4 4 4 4 4 = = = = o ",
"    % = 2 4 4 = = = = = = = : r v v v r r t r B v r v B A  .&.! v B -./ : = = : v v x T = = = v v v v ~ ( = = 4 4 4 4 = = = o o ",
"    = = : 4 4 4 = = = = = = = = = : r r r r t v v r v C ] ~ B B B B A &.i : = : v v x d = = : v v v r Q 5.#.O.G F T s 9 5 = % % ",
"+ + = 6 4 4 3 4 4 = = = = = = = = = = : : r r r v v v R C v B B B B B ~ ' = = = r v C p = = r B v v C ' s - - 5 5 5 - - - = % % ",
"5 $ Y L 3 3 3 3 4 8 = = = = = = = = = = = = : : r r v v B B B B B B B B ' d = = r m C i = = v M v v ^ i = = = = = = = = = = % % ",
"& & x L = 3 3 3 4 : 8 = = = = = = = = = = = = = : r r v B B B B B B B B A ' 8 = r v v 0 = : B M v P i = = = = = = = = = = = % % ",
"& & & 0 3 3 4 r v r w 5 = = = = = = = - - = = = r : : r v B B B B B Z Z Z ! T = : v v : = r B M C 8 = = = = = = = = = = 4 & & & ",
"& & & k : 3 4 v v r : s = = = = = 8 a a 8 = = = r r : : : v B B B Z Z o.Z B E w : r r : = v B v : = = = = = = = = = 4 4 & & & 2 ",
"& & & k > 3 3 r v r 4 L i = = s ^ Q x r : = = 8 v r : : : : t v B Z Z o.o.B Z R : r r : : v B : = = = = = = = 4 4 v k 4 & & 5 @ ",
"& & & h 3 3 4 r v r 4 : ' ' +.) x v r r : : = w v r r : : : : t r v B o.o.B B A 0 r r = r B r = = = = = = 4 v v v v 4 & 4 p @   ",
"% & & h 4 4 4 3 v 4 4 4 | :.C v v v r r : = - w r r r t 8 8 : r t r r v B B B B v r r : v v = = = = 4 r v M v v v v * k T @     ",
"o & & h k 4 : 4 v 4 4 : _ v M v v v r : : = 8 L r r r r 0 7 : t t t t r r v B B B r r : v : = = : r v M M v M v C L } %.- %     ",
"  % & h k 4 : 4 4 4 4 0 E M M v v v : : = = 8 0 r r v v C L : : t t t t : : : r v v r r : = : r v M M M v x L U W W -.%.X =     ",
"o o % h k 4 4 4 4 4 : L x M M v v : : : = = p 0 r r v v v L a : : : : : : : = = = : r : : r r r r r r r : r 3 3 3 3 : ( = =   o ",
"    = 3 3 4 4 = 4 3 : L v v v v r : : = = = T t t r v v v v T a = 8 8 w w w w t r r r : : : : r : 4 r r 4 4 3 3 4 = 4 s = X   o ",
"    = = 3 h 4 = 3 3 8 x v v v 4 : : = = = 8 T : : 1 v B v v x -.' _ _ ! A A B B v r : r : > : r : 4 4 4 4 4 3 3 4 4 4 5 -   % & ",
"    = = = 3 4 = 3 : 8 x v v : : = = = = = p T : : : r B v v t  .A B B B B B B B r = : v : : : r r v v v r 3 3 3 4 4 = = = % % & ",
"    = = = 3 4 4 3 3 : 3 4 4 = = = = = = = Q T = = = r B v v C ! B B Z Z Z Z B v = - : B : : = 4 r v v v M v r r 4 4 = = % % & & ",
"    % = = = 4 3 = = 4 4 : = = = = = = 8 T 3._ = = = : B v v x x B B Z Z Z Z v : = 8 : Z r : = = 4 v v v v v v v v 3 3 = = & & & ",
"    = = = = 4 3 = = : : = = = = - p T Q ! { -.- = = : v v v x A B B Z Z Z B : = - 8 r Z v : : = = : v v v v v v 4 4 3 % % % % % ",
"      = = = = 4 = = : = = = = : C C v B B B ~ T = = = v v v x B B B Z Z B r : = i 8 r Z Z : r : = = 0 v v v v v 3 3 3 = = % % o ",
"+ + + = = = = 4 4 = = = = 4 r v v v B B B B B _ 8 = = r v v C B B B B B r : : = p : r Z Z t : : : = = p C v r v 3 3 3 - = o o o ",
"g $ 9 5 5 2 = 4 4 = : : 4 4 r r r r M B B B B x T = = r v r C B B B B r r : : 8 L : r Z Z C : r 4 = = = s L r 3 4 4 : 5 o o o o ",
"& & & & & & 4 4 = 4 = = 4 4 r v v v M M M B B B R 8 = : r r v v B B v r r : = d a : r Z X.A 0 4 r 4 = = - d U 4 4 4 p = % o o o ",
"& & & & & & 4 4 = r 4 = = = 3 r v v M M M B B B B x = : r r v v v v r r : : = ^ 0 : r Z X.A 0 4 r r 4 = = = d _ : 2 D % % o   o ",
"& & & & & & 4 = = r k 4 = = = = 4 r v M M M B B v v 8 = r r v v v r : : : = 7 ^ : > r Z j Z P 4 4 4 r = = = = d %.%.$ o % o   o ",
"& & & & & & = = = r 3 4 : = = = = = = : r v M v v v r = : r v r : : : : : = T T : : r j X.j ! : 3 3 r 4 = = = = T ;.= o % o o o ",
"O O O & & & = = : v r 4 4 0 6 = = = = = = : r r v v v : : r r : : : : = = = +.w : : r Z X.j A 0 3 4 4 r 4 = = = = T 5 % % o o o ",
"o % & & & % = = : k v r 4 4 w i = = = = = = = = : : r r : : = : : : = - - T ;.: : : r Z j j A P 3 3 4 4 4 4 = = = 5 y % % o o o ",
"o % % % % % = = 0 k v v 4 4 4 p s = = = = = = = = = = : r : : 0 L Q ) ' &.9.:.: : 4 r Z j Z Z E : : 4 4 4 4 = = = = y = % o o o ",
"o o % % % % % = 2 k v v r 3 : : T d = = = = = - i w C v r r v v v B B v v ~ -.: : 4 r Z Z Z Z ~ w : 3 3 4 k 4 = = % + @ % o o o ",
"o o o % o % = = 2 4 v v r 4 : : : T / - i T Q P C v M v v : r v M B v v M M | w 4 4 r Z Z Z Z ! U 3 3 3 4 4 4 & % = + @ o o o o ",
"o o o o o % = = 6 k 4 v v 4 : : : = ' 2.) P v M M M M v C 8 : r M M M M M M ~ L 4 4 r Z Z Z Z B } : 4 4 4 4 4 = % X   + + o o o ",
"o o o o o % = = 6 k 4 v v r 4 4 = = p ] * v v M M M v v x 0 : : v M M M M M C Q 4 4 r Z Z Z Z M 1._ : 4 4 = = & % %     + o o o ",
"o o   o o o % = z 4 k v v v 4 = = = 9 P v v v M M v r r x w : : : v M B B B M E : : r Z Z Z Z A Q ^ ^ 8 4 4 = = % %     + o o o ",
"      o o o % = L & & k v v 4 = = = 5 L v v v M v r r r x L : : = = v B M M M R w : r B Z Z M E 5 = 9 T 9 = = = % % o     o o o ",
"    o o o o % = U & & k k v v 4 = = - x v v v v r 4 4 4 x T 3 : = = 4 v M M M v L 4 4 m M v B L = = = = s i = = = % o       o o ",
"      o o o % = Q & & k k v v 4 = = - 0 v v v v 4 4 4 4 L _ 3 : = = = 4 M M M v x : 4 m M M x 5 = = = = = 5 y + % % o o     o o "
};
