/* XPM */
static char *e7fc5f2b44f14a8ca058ec61e8798ef8D0lkIiISpe4MFtSM[] = {
/* columns rows colors chars-per-pixel */
"64 64 236 2 ",
"   c #010103",
".  c #05030B",
"X  c #0A050D",
"o  c #060614",
"O  c #0B0613",
"+  c #090C12",
"@  c #060719",
"#  c #0A0719",
"$  c #06091C",
"%  c #0A081D",
"&  c #120716",
"*  c #120818",
"=  c #13091C",
"-  c #1B0A1D",
";  c #121316",
":  c #16161C",
">  c #18161C",
",  c #070B23",
"<  c #0B0A24",
"1  c #0D0D2C",
"2  c #150B22",
"3  c #1B0B24",
"4  c #110D2D",
"5  c #1D0D2C",
"6  c #1C1527",
"7  c #191924",
"8  c #1B1B2C",
"9  c #0D0E32",
"0  c #120F33",
"q  c #1E0E32",
"w  c #160F39",
"e  c #180F39",
"r  c #0C1135",
"t  c #0E123B",
"y  c #131036",
"u  c #1C1035",
"i  c #1C1D34",
"p  c #13113B",
"a  c #1A123D",
"s  c #1E1D3B",
"d  c #230C25",
"f  c #220E2D",
"g  c #2B0F2D",
"h  c #221626",
"j  c #231827",
"k  c #24112E",
"l  c #26162D",
"z  c #2A192E",
"x  c #220F32",
"c  c #2C0F32",
"v  c #230F39",
"b  c #290F38",
"n  c #310F34",
"m  c #390F3B",
"M  c #231134",
"N  c #2B1134",
"B  c #291C35",
"V  c #23123B",
"C  c #2C133B",
"Z  c #331235",
"A  c #33133B",
"S  c #3A143D",
"D  c #321C38",
"F  c #1D203D",
"G  c #33203B",
"H  c #0E1442",
"J  c #0E174C",
"K  c #121443",
"L  c #1C1443",
"P  c #121944",
"I  c #191946",
"U  c #13164B",
"Y  c #1B164A",
"T  c #14194D",
"R  c #1B194B",
"E  c #0F1951",
"W  c #141751",
"Q  c #1A1751",
"!  c #151A54",
"~  c #1A1D52",
"^  c #161C5B",
"/  c #1A1C5C",
"(  c #241443",
")  c #2B1544",
"_  c #271944",
"`  c #25164B",
"'  c #29164D",
"]  c #23184D",
"[  c #2C194D",
"{  c #341542",
"}  c #3C1543",
"|  c #351944",
" . c #3C1945",
".. c #34154A",
"X. c #3B164B",
"o. c #34184C",
"O. c #3C194B",
"+. c #271751",
"@. c #281751",
"#. c #241952",
"$. c #2B1954",
"%. c #211A5C",
"&. c #2C1B5C",
"*. c #3C1751",
"=. c #321B53",
"-. c #3D1B53",
";. c #3A1658",
":. c #321C5B",
">. c #3C1D5C",
",. c #1E2243",
"<. c #19205B",
"1. c #212348",
"2. c #372149",
"3. c #252552",
"4. c #39205E",
"5. c #151E63",
"6. c #1A1E63",
"7. c #1C1F6B",
"8. c #241C67",
"9. c #2C1D62",
"0. c #2B1D6B",
"q. c #331D62",
"w. c #3A1E62",
"e. c #331E6B",
"r. c #3A1E6B",
"t. c #271F74",
"y. c #341F72",
"u. c #3E1F71",
"i. c #172266",
"p. c #1B2164",
"a. c #16216B",
"s. c #1B216C",
"d. c #172273",
"f. c #1B2374",
"g. c #172479",
"h. c #1C257B",
"j. c #1A287F",
"k. c #282168",
"l. c #3F2061",
"z. c #33206D",
"x. c #212275",
"c. c #21237B",
"v. c #2F217C",
"b. c #332174",
"n. c #3C2073",
"m. c #34227A",
"M. c #3A237C",
"N. c #421645",
"B. c #421945",
"V. c #43164A",
"C. c #4B174D",
"Z. c #44194C",
"A. c #49194D",
"S. c #431753",
"D. c #461B52",
"F. c #4C1B54",
"G. c #4A1759",
"H. c #431B5D",
"J. c #4D1C5B",
"K. c #511B56",
"L. c #531C5C",
"P. c #591D5C",
"I. c #492354",
"U. c #4C2256",
"Y. c #441C63",
"T. c #4D1C63",
"R. c #441D69",
"E. c #4C1D6D",
"W. c #541D62",
"Q. c #5B1E64",
"!. c #561D69",
"~. c #5C1E6B",
"^. c #481E73",
"/. c #571D75",
"(. c #621C65",
"). c #621E6B",
"_. c #691D6D",
"`. c #621E73",
"'. c #691E75",
"]. c #701F77",
"[. c #46236B",
"{. c #562265",
"}. c #5B2166",
"|. c #5C2169",
" X c #432175",
".X c #4B2176",
"XX c #45227A",
"oX c #49227D",
"OX c #582077",
"+X c #53217C",
"@X c #63216D",
"#X c #642273",
"$X c #6A2275",
"%X c #65207B",
"&X c #6C227C",
"*X c #74217A",
"=X c #73227C",
"-X c #1A2782",
";X c #1C2989",
":X c #1A2A90",
">X c #222584",
",X c #24278B",
"<X c #24288C",
"1X c #342484",
"2X c #392483",
"3X c #36258C",
"4X c #3A258B",
"5X c #262994",
"6X c #282A96",
"7X c #272B99",
"8X c #282B9B",
"9X c #3B2691",
"0X c #3B2896",
"qX c #2A2DA3",
"wX c #402382",
"eX c #4D2384",
"rX c #532383",
"tX c #5A2285",
"yX c #55258C",
"uX c #5B258D",
"iX c #572592",
"pX c #5D2591",
"aX c #6C2284",
"sX c #642388",
"dX c #722483",
"fX c #7C2284",
"gX c #74238B",
"hX c #7B278D",
"jX c #652697",
"kX c #7B2793",
"lX c #7D2593",
"zX c #82248A",
"xX c #88288E",
"cX c #83279C",
"vX c #842898",
"bX c #8828A4",
/* pixels */
"B 7 ; B 7 8 8 j 8 B B 3.i ; : s 7 7 i 8 i ,.,.: : : : > : : : : : i 1.,.,.1.3.3.3.1.1.,.F s i i 8 8 8 8 8 8 8 7 7 8 7 8 7 7 7 7 ",
"3 . # ... ) 2 ( V ` e.1Xo   t K # U r U ! j.g.H H K t t t K U U W 6.h.,X7X5X5X5X6X6XqX7X>Xf.6.! W T K t t t r 1 9 r $ r $ 1 $ 1 ",
"    ..* 2 V 5 a ( ` m.8.. K 9 o U 9 K U 7.:X1 o $ 1 9 t H K ! 5.h.5X6Xc.W t 9 0 0 y W 7.5XqX,Xs./ ^ U H H t r r r 1 < t $ 9 $ r ",
"  x x . ) # V u ( @.2X0.U < o K 1 H K W h.:XJ H H H t H U ! 7.-X7X7.K 0 1 9 0 1 1 1 1 1 9 6.5X8Xh.6.! K K t t t r 1 9 r @ r @ r ",
"* ..  5 5 5 5 V ( $.4X0.o o U , t t U / -XJ o , r t K U ! 7.>X5XU 0 1 9 0 1 9 0 0 9 1 1 1 1 0 t.qX>X6.W U H t t r 1 r r $ r @ r ",
"C & X C O ) 5 V ( $.4X4 o U $ t r K U ^ :X! H t r t K W 6.>X,Xp 0 4 0 0 y y 0 0 0 0 0 0 4 1 1 < 6.6X,X6.! U H t t r r 1 , r @ H ",
"X   b * 5 5 V u ` &.3Xp K o 9 9 t K W f.d.$ , r H K U ^ j.<XK 0 0 p y p p p p 0 p 0 0 0 0 9 1 1 1 L 8X>X/ T U K t t r 1 1 r @ H ",
"  = C . C = V a ( 9.0X/ o 1 r 1 p K W -Xa.H t 9 t U ^ f.<XU 0 p y p p p p K p p p p y 0 0 9 1 1 1 < K 6Xc.^ W K t t r 1 9 r @ r ",
". ..O 5 3 q 3 V ` 9.3X@ < t < t t K ! -XH , r H K T 6.>X/ 0 p p p L L L L I L L L p p w y 0 9 9 1 1 < Q 5Xh./ U K t r 9 r r , H ",
"M M . ) O V q V ` 0.m.1 p @ p 9 K U 6.-XH t 9 t U ! f.x.p p p p L L Y ] #.] ] Y L L L a p p 0 0 9 1 1 1 U qXf.! U H t r r 9 , H ",
"M X f 3 5 5 V V ` e.3XU o p < p K W s.g.< 1 t H W 6.>XU 0 p p L Y #.#.&.&.&.&.#.#.] Y L L p p 0 0 1 1 9 1 7.<X6.W K p t r 9 1 r ",
"  X C O C 5 u ( ' b.1Xo 9 1 t p U ! h.5.r r t K ! f.x.y 0 p L ] #.9.q.z.u.u.r.r.9.&.#.Y L p p y 0 4 9 1 1 1 ,X,X/ T K t t 9 1 9 ",
"  M 5 3 5 u q ( ' b.0.< 9 < t K K ! -X^ < t t U 6.>XR y p L #.&.w. XrXuXuXuXpXyXXXr.&.+.` L a p 0 0 1 1 1 < Q 7Xf.! U K t 9 9 , ",
"X ..X ) = V u ( +.b.v.p $ p r p K ^ -XH t r K T s.c.p y a ] &.r.rXrXH.| { { O.E.iXiX^.q.#.` L a p y 0 4 1 1 0 / 5X6.W K t r r o ",
"x 3 * x 3 5 V ( +.m.1Xo r 1 t p K ^ ;XH 9 t K ! h./ y p R $.r.rXY.C C C C C N N C E.pXXXq.#.` L p y 0 0 1 1 1 9 6Xc.^ U H r t . ",
"5 . C * V 3 V ( @.m.9.1 1 1 1 p U 6.h.r t t U ^ c.K p L ] w.+X-.C C A { { A C C N M -.pXoXq.#.Y L p y 0 1 1 1 1 U 5X7.W H t t . ",
"  O N * M q q ( ' m.y.0 , 9 9 p T s.-Xr r p T s.x.p a R &..XS.C A  . . . . .{ A C N M ..uXXX&.` L L y 0 1 1 1 1 @ <X>X^ U H t . ",
"  x = x 3 V u ( ` b.1X@ 9 1 r K T s.a.r t K W f.6.y L +.r.R.C | O.Z.Z.D.D.D.O.{ A C C M X.pX X$.` L a p 0 1 1 1 $ / 5X6.T H H o ",
"O C X V 2 x M V +.m.0.< 1 9 r K T f.g.1 t K ! f.T p R &..X| | V.D.F.L.Q.W.J.F.Z. .A C N f Y.uXr.+.Y a p 0 1 1 0 , 1 c.>X^ U H @ ",
"f 3 2 5 q 3 V ( ` z.v.t < 9 t K W d.5.r t K / c.I a ] r.H.A  .D.W.$X=X=X=X'.Q.J.D. .{ C C N +XeXq.` L p w 4 1 1 < , / 6X6.U H , ",
"x . V * V 5 q V ` e.3X< 9 1 9 K W d.d.9 t K / c.K L $.E.O.} D.~.$XP.A.A.P.*XfX).L.D. .A C c ) pXn.$.L a p 0 1 1 1 $ p ,Xh.W U 1 ",
"  O V = q q q V ` e.m.1 1 9 9 K T d.^ r t K 6.f.p Y :.R. .V.Q.@XB.} B.B.S S Q.fX#XJ.V.{ C M f Y.yXq.` L a w 0 0 1 $ 9 W <X^ U 9 ",
"  f = q 2 M q V ` e.3XI < 9 t H U d.a.r t U 6.s.p R w.H. .J.).N.N.V.A.A.V.B.S P.fX~.D. .A N M N uXn.$.L a a w 0 1 , 1 9 qX7.T t ",
". C X V 2 q V V ` &.3Xp 9 1 t K U d.5.r t U 7.7.K ~ r.-.V.Q.F.} D.L.W.P.F.A.B.S (.=XW.D. .C N k H.yXq.] L a w 4 0 1 < 9 >X>X^ H ",
"- x * 5 5 3 V V ` &.1Xp 1 9 0 K T f.d.r t U i.6.p #.R.O.D.Q.N.F.{.W.W.#X}.F.V.S } $X$XJ. .A A x C pXu.@.` L w 4 4 1 , 9 K 5X/ U ",
"C & f = M 3 q V ( &.4X8.< 9 r p U a.a.r p U 6.6.a +.Y. .L.F.Z.L.| ) { o.{.|.F.B.S A.fXQ.Z.{ A M x R.yX&.` a p 0 0 1 $ 0 , 8Xs.W ",
"3 . C # x 5 q V ( @.2X%.< 1 r t U 5.g.t t U 6./ a +.Y.X.Q.A.J.| [ =.=.) ..!.Q.F.} Z _.$XJ. .A N x X.iXq.` a w 0 4 0 , 1 < ,X-XU ",
"  * x 2 3 x q V ( ` m.8.9 1 r t U 5.g.t t K ^ 6.a ] H.V.P.A.D.[ $.#.k.:.) O.OXK.V.S C.dXW.V.A C x x /. X@.L p 0 0 0 < , 1 U 5XK ",
"  f * x 2 q q M ( @.b.3X1 9 t p U ^ -XH t K ^ 7.a ] l.O.L.D.-.#.R ~ I k.=...T.~.Z.} S $X@XD.{ C c f E.rX&.L L p 4 0 1 # 0 $ 5XK ",
"* C O b 2 5 M u V ' y.3X9 1 r p K ^ -XE t K ^ 8.K ] l.O.L.F.=.~ ^ ~ ~ I q...o.).F.B.Z P.=XL.} A N f { yX:.L a p 0 1 0 $ 1 $ 6X/ ",
"S.C # f 5 3 x V V ` e.4XQ 1 9 t K ! f.^ r K W s.I ] w.O.K.D.&.6.9.~ ~ I &.=.) !.L.Z.S B.fXQ.X.A C M x uXu.` a w 0 1 0 < $ 1 7.h.",
"/.3 5 = x 3 x M V ` 9.4X%.1 9 t K T i.a.r K T s.T L >.O.F.D.&.wXaX$.T T #.:.) G.~.A.S S *X~.D.{ C c x E.eX&.L a w 4 1 9 o 0 9 >X",
"'.c x O x 3 5 u V ( &.2X0.9 9 t K U 5.f.t t U 6./ L :.-.Z.A.=.1XuX>.T T R :.) O.~.F.} Z ).#XD.{ C N f *.yXq.] a w 4 1 0 @ 0 @ t.",
"`.!.x * 5 q 3 x x ( ` e.3X9 9 9 t U ^ h.H t K ^ p.L ' >.O.K.S.r.E.>.R ~ R &.o.| ~.K.B.Z K.=XJ.X.A N f X.uXr.` L w 0 < 0 < < 1 7.",
"S.lX5 3 3 x 3 x x V ( &.3XK 1 9 p K ! d.^ r K T s.R L w.O.J.K.K.J.=.~ ~ I &.=.C !.L.V.S A.fXL.} A N f x rX^.` a w y 1 < 0 O p 1 ",
"A cX3 f = x 5 5 V ( ( &.2X0.1 r t p T a.f.t p U p./ L $.l. .J.F.-.$.~ <.I &.=.C W.W.V.S S fXQ.O.{ N M 5 tXXX$.L p y 0 < y # w   ",
"A lXX.x = 5 5 5 x v ( $.m.1X9 9 t K U ^ h.U t K W s.R L :.[.-.-.=.#.T <.I &.=.) T.Q.Z.S S =X~.Z.{ N c x R.oX@.( a w w < 4 < <   ",
"} dXaXx 2 3 x 5 q q V ` 9.3XQ 9 9 p K ! f.a.r p U <.p.L ( &.4.=._ ~ P <.P 9.=.) J.).A.S Z ].).Z.{ C f x ..rX@.( a 0 0 4 # 0 o o ",
"V.~.bXf 5 2 x 5 q v V ` &.2X0.1 0 p p U 5.h.K r K W p.k.I L L a ~ ~ P <.P 9.=.) J.).A.S Z _.$XD.{ C M 3 H.yX&.( a 0 4 y @ p . p ",
"} W.vX{ x = 5 5 5 v ( ` @.e.4Xp 9 p p K ! f.a.t t U T p.k./ / %.<.t ~ ~ P z.=.) J.~.A.S Z _.&XD.{ C N f C rXq.` a w 4 0 < < < 1 ",
"A J.dX%XM = 5 q 3 x ( ( ` &.4X%.9 p p K T / h.5.t K K T / p.p.~ P P p.T I r.=.) T.~.Z.S Z Q.&XD.{ C N M 5 uX:.` a u 4 1 y o p o ",
"c A.|.bX{ 3 3 x 5 M V V ( @.b.3Xp 9 0 p K ! a.g.W p p K U T T K t / / I ~ r.[ C !.).Z.} Z (.=XS.{ C M f C uXr.` a p w < y # 0   ",
"d V.L.lXG.5 2 f x x V V ( ` &.4X8.1 9 y p T ^ a.g.! t p K P p p ^ i.T K 9.w.[ C !.~.Z.S Z P.=XS.{ C N f f ^. X` L w w 1 < 4 %   ",
"d V.F.$XgX) = f 5 5 x V V ( @.b.9Xp 9 p p K T / s.j.a.T K K T i.s.~ K K z.:.[ C `.Q.Z.S Z (.=XD.} N N N = tX X` L w 0 w @ p . < ",
"= } Z.Q.cXW.& 5 5 5 5 q V ( ' 9.2Xt.9 r t p I W ^ 5.f.j.h.f.f.i.~ I a #.z.=.) { %XW.V.S Z Q.=XD.{ A N k f +X X' L e 4 y , 4 # K ",
"& } N.J.&XaX3 3 x 3 3 x V V ` $.0.9X%.1 r p p K T ! ^ 5.6./ ^ W T K K z.w.[ C ..&XK.N.S N '.&XD.{ C N 3 g H.oX@.L a 0 4 w # 0 $ ",
"X } N.D.Q.vXS.2 x 3 5 x V V ( ' &.m.9XI 1 r p p I I T W ! T T U K p %.b.=.) V H.%XF.N.Z Z (.$XD.} C f C * E.oX@.L a w < p o p   ",
". S } V.J.dXlX= 5 3 3 5 x V V ( @.9.M.3XK 9 y p p K K U U I I K p I m.w.[ ) M ~.`.D.} S c *X$XZ.A C N k k +XoX@.( e e 4 < 4 <   ",
"  A A } D.|.vX{ 5 3 3 f x M V ( ( @.9.2X3XR 9 r t p p K p p p p I b.r.=.) V C %X|.Z.} Z S =X@XZ.A N A 3 N ;.eX@.( u 4 a # a . $ ",
"  A Z } V.J.=XkXN 5 3 x x x M V ( ' $.q.2X9X%.y 9 y p p p p t R m.n.:.[ ) M O.aXL.V.S A Z zX|.V.Z A f A O E.eX` ( a 4 0 < 4 o L ",
"& N Z S N.D.Q.cXG.5 5 x x x M V V ( ` $.e.M.0X1X/ K p y p R 0.2Xr.:.[ ) C x !.$XJ.B.S A N.fXW.O.Z C N 3 f +XoX' a a 0 < a . 0 $ ",
"d c n S } V.J.$XlX*.3 5 5 5 x M V V ( ' $.9.e.2X4X9X1Xm.1X2XM.r.:.o.) C C { aX~.Z.S S g N.zXL. .A N N 3 N ;.oX' L 0 a < 0 # p   ",
"c g c A S } Z.L.hXgX3 5 f f x x M V ( ( ` ' &.q.z.y.m.M.n.r.q.=.$.) V C M J.&XL.V.} Z S (.fXJ.} N A 3 A X E.oX' a 0 4 p # K $   ",
"m d N A A S N.D.|.cXW.5 x 5 f x M M V ( ( ( ' @.&.&.q.q.:.$.$.[ ) ) C C C aX#XJ.} S S - (.=XZ.A A f A & x sXXX` a a < w @ p   < ",
"N.d n A Z S } V.J.$XcXX.5 5 5 x q x V V V ( ( ( ' ' @.$.' ' [ ) ) C V k ~.dXW.Z.} Z Z N.zX@XV.A N A 3 f C ^. X` a u e % w # $ p ",
"} - Z Z N A } N.Z.L.dXlXX.3 5 5 f x x M V V ( ( ) ) ) ) ) ) V C V V x X.gX).F.N.S } d g fX|. .} N N f C X +X X` L 0 e % p . K o ",
"Z - Z c g A S S N.D.W.kXcXb 5 f 5 5 x x M V V V ( V V V C V V V V M C aX&XL.Z.} Z Z S ).zXL.V.Z A f { X A jXr.` L w 4 p $ 4 4   ",
"S - S d g A Z A } V.F.|.kXlXA 5 5 5 5 x M M M M V V V V V V V M M M %XgX|.F.} } } g - P.dXJ.} { f } O C { uXw.( a L < e o I     ",
"S - Z d g Z g Z S } V.F.|.hXlXS.3 5 f f 5 x M M M M V M M V M V M /.lX@XJ.Z.S N Z S C.xX$XZ.} N { & A f = uXw.` a 4 a # p < . w ",
"n - m - n c g Z S S } Z.F.Q.hXbXJ.k 5 5 5 q M M M x M M M M M N aXkX#XL.Z.V.} } Z - Z xX{.V.A } - { f . *.pX:.( L 4 a , Y   p 0 ",
"g - c - A g g Z Z A } } Z.F.L.=XbXgX*.5 5 f x q f k M q f N S.kXlX#XW.D.} } Z Z N.N.*XfXJ.} } d } 3 O { E.yX$.( u a $ I @ < L   ",
"g d c - S d g Z g Z A } } B.C.W.#XlXbXaXJ.C f 5 k f 5 C H.aXcXdX@XL.F.X.} } c d - - fX@XZ.} g  .3 - O.- *.rX@.( 4 0 4 a . Y O   ",
"d d d 3 n - Z g g Z A A S } N.V.L.|.&XlXbXbXkXaX#X`.gXbXbXgX@XW.D.V.V.} } S } } S (.zXL.V.N X.3 f X.O . ^.oX' L L % L . e 4   @ ",
"6 h h h l 6 z h j z z z z z D D D  .2.Z.I.U.{.{.{.|.U.I.{.U.G h h h j j j h j j j U.U.D D z z : | : + h [.2.B 8 i 7 8 ; s ; ; s "
};
